<?xml version="1.0" encoding="UTF-8"?>
<svg xmlns="http://www.w3.org/2000/svg" xmlns:xlink="http://www.w3.org/1999/xlink" width="512" height="512" viewBox="0 0 48 60" version="1.1"><!-- Generator: Sketch 51.3 (57544) - http://www.bohemiancoding.com/sketch --><title>012 - Quran</title><desc>Created with Sketch.</desc><defs/><g id="Page-1" stroke="none" stroke-width="1" fill="none" fill-rule="evenodd"><g id="012---Quran" fill-rule="nonzero"><polygon id="Shape" fill="#CAD9FC" points="44 51 44 59 7.62 59 3.21 58 1 56 1 51"/><polygon id="Shape" fill="#E8EDFC" points="41 51 41 59 7.62 59 3.21 58 1 56 1 51"/><path d="M47,3 L47,51 L4.48,51 C2.14012503,50.8726295 0.137488602,52.6606978 0,55 L0,5 C0.137488602,2.66069776 2.14012503,0.872629515 4.48,1 L44.76,1 C45.9293496,0.937989439 46.9296581,1.83112196 47,3 Z" id="Shape" fill="#CAD9FC"/><path d="M44,3 L44,51 L1.48,51 C0.977643162,50.9983863 0.478174613,51.0760064 0,51.23 L0,5 C0.137488602,2.66069776 2.14012503,0.872629515 4.48,1 L41.76,1 C42.9293496,0.937989439 43.9296581,1.83112196 44,3 Z" id="Shape" fill="#E8EDFC"/><rect id="Rectangle-path" fill="#FFFFFF" x="11" y="5" width="32" height="42" rx="1"/><path d="M36.235,32.986 C33.7895332,36.7399643 29.3116626,38.6356882 24.9141433,37.7787287 C20.5166239,36.9217691 17.0782309,33.4833761 16.2212713,29.0858567 C15.3643118,24.6883374 17.2600357,20.2104668 21.014,17.765 C21.3694807,17.5434827 21.825678,17.56857 22.1547251,17.827731 C22.4837723,18.086892 22.6150555,18.5245106 22.483,18.922 C21.9565984,20.5625845 21.857133,22.3102851 22.194,24 C22.9853511,27.9372214 26.0627786,31.0146489 30,31.806 C31.6890839,32.1423437 33.4360067,32.0428834 35.076,31.517 C35.4737698,31.3836671 35.9124257,31.5144208 36.1722781,31.8437765 C36.4321306,32.1731322 36.4572276,32.6301723 36.235,32.986 Z" id="Shape" fill="#A4C2F7"/><path d="M35.687,24.932 L33.742,23.861 C33.5865634,23.7744744 33.3974366,23.7744744 33.242,23.861 L31.3,24.928 C31.1138864,25.0232528 30.8896165,25.0031923 30.7233626,24.876421 C30.5571086,24.7496497 30.4784043,24.5386875 30.521,24.334 L30.894,22.07 C30.925518,21.8883 30.8682856,21.7024805 30.74,21.57 L29.168,19.964 C29.0207418,19.8142193 28.9679773,19.5954936 29.0307478,19.3950463 C29.0935183,19.194599 29.2616134,19.045036 29.468,19.006 L31.644,18.678 C31.8215835,18.649222 31.9733157,18.5342053 32.049,18.371 L33.024,16.311 C33.1087408,16.1203153 33.2978337,15.9974242 33.5065,15.9974242 C33.7151663,15.9974242 33.9042592,16.1203153 33.989,16.311 L34.96,18.372 C35.0337537,18.5348477 35.1837111,18.6503149 35.36,18.68 L37.535,19.013 C37.7418024,19.0517964 37.9103141,19.2015508 37.9731337,19.4023643 C38.0359534,19.6031779 37.9828255,19.8222668 37.835,19.972 L36.26,21.572 C36.1313534,21.7042929 36.0737418,21.8901367 36.105,22.072 L36.474,24.337 C36.5194838,24.5441056 36.4402519,24.7587408 36.2711101,24.8866179 C36.1019684,25.0144951 35.8738634,25.0322176 35.687,24.932 Z" id="Shape" fill="#A4C2F7"/><path d="M4,51.23 L4,5 C4.1374886,2.66069776 6.14012503,0.872629515 8.48,1 L5.48,1 C3.14012503,0.872629515 1.1374886,2.66069776 1,5 L1,51.23 L4,51.23 Z" id="Shape" fill="#FFFFFF"/><polygon id="Shape" fill="#FFFFFF" points="2 5 2 18 2 55 0 55 0 18 0 5"/><path d="M1,10 C1.55228475,10 2,9.55228475 2,9 L2,5 L0,5 L0,9 C0,9.55228475 0.44771525,10 1,10 Z" id="Shape" fill="#428DFF"/><path d="M0,55 L2,55 L2,17 C2,16.4477153 1.55228475,16 1,16 C0.44771525,16 0,16.4477153 0,17 L0,55 Z" id="Shape" fill="#428DFF"/><path d="M2,13 C1.99611961,12.7352731 1.89256504,12.481743 1.71,12.29 L1.56,12.17 C1.50427287,12.1321227 1.44373808,12.1018554 1.38,12.08 C1.32333758,12.0511123 1.26266255,12.0308873 1.2,12.02 C1.13385548,12.0088692 1.06703885,12.0021875 1,12 C0.735273141,12.0038804 0.481742984,12.107435 0.29,12.29 C0.199603156,12.3856071 0.12832305,12.4976187 0.08,12.62 C-0.0708765757,12.9929737 0.0113519394,13.4197788 0.29,13.71 C0.385607086,13.8003968 0.497618681,13.871677 0.62,13.92 C0.740222313,13.971241 0.869322743,13.99842 1,14 C1.26603534,14.0027011 1.52196165,13.8982118 1.71008674,13.7100867 C1.89821183,13.5219616 2.00270108,13.2660353 2,13 Z" id="Shape" fill="#428DFF"/><path d="M47,60 L5,60 C2.23857625,60 8.8817842e-16,57.7614237 8.8817842e-16,55 C8.8817842e-16,52.2385763 2.23857625,50 5,50 L45,50 C45.5522847,50 46,49.5522847 46,49 L46,3 C46,2.44771525 45.5522847,2 45,2 L5,2 C3.34314575,2 2,3.34314575 2,5 C2,5.35726559 1.80940108,5.68739261 1.5,5.8660254 C1.19059892,6.0446582 0.809401077,6.0446582 0.5,5.8660254 C0.190598923,5.68739261 0,5.35726559 0,5 C0.00330611633,2.23994685 2.23994685,0.00330611633 5,0 L45,0 C46.6568542,1.01453063e-16 48,1.34314575 48,3 L48,49 C48,50.6568542 46.6568542,52 45,52 L5,52 C3.34314575,52 2,53.3431458 2,55 C2,56.6568542 3.34314575,58 5,58 L47,58 C47.5522847,58 48,58.4477153 48,59 C48,59.5522847 47.5522847,60 47,60 Z" id="Shape" fill="#428DFF"/><path d="M44,60 C43.4477153,60 43,59.5522847 43,59 L43,51 C43,50.4477153 43.4477153,50 44,50 C44.5522847,50 45,50.4477153 45,51 L45,59 C45,59.5522847 44.5522847,60 44,60 Z" id="Shape" fill="#428DFF"/><path d="M7,48 C6.44771525,48 6,47.5522847 6,47 L6,5 C6,4.44771525 6.44771525,4 7,4 C7.55228475,4 8,4.44771525 8,5 L8,47 C8,47.5522847 7.55228475,48 7,48 Z" id="Shape" fill="#CAD9FC"/><path d="M40,56 L6,56 C5.44771525,56 5,55.5522847 5,55 C5,54.4477153 5.44771525,54 6,54 L40,54 C40.5522847,54 41,54.4477153 41,55 C41,55.5522847 40.5522847,56 40,56 Z" id="Shape" fill="#428DFF"/><path d="M42,48 L12,48 C10.8954305,48 10,47.1045695 10,46 L10,6 C10,4.8954305 10.8954305,4 12,4 L42,4 C43.1045695,4 44,4.8954305 44,6 L44,46 C44,47.1045695 43.1045695,48 42,48 Z M12,6 L12,46 L42,46 L42,6 L12,6 Z" id="Shape" fill="#428DFF"/><path d="M27,39 C21.0809374,39.009858 16.0387907,34.7022904 15.1241475,28.8543141 C14.2095044,23.0063378 17.6955971,17.3649249 23.335,15.567 C23.7379109,15.4395568 24.1774397,15.5791393 24.4329973,15.9156944 C24.6885548,16.2522495 24.7049682,16.7131177 24.474,17.067 C23.5070721,18.5300522 22.9942483,20.2463072 23,22 C23.006061,26.9680501 27.0319499,30.993939 32,31 C33.7519911,31.0047657 35.4663669,30.4919836 36.928,29.526 C37.281949,29.2911463 37.7456442,29.3055306 38.0843559,29.5618712 C38.4230677,29.8182119 38.5628729,30.2605631 38.433,30.665 C36.8502773,35.6413396 32.2219466,39.0155316 27,39 Z M21.53,18.616 C18.1228641,20.8449791 16.4056635,24.9158528 17.1870267,28.9116499 C17.9683899,32.907447 21.092553,36.0316101 25.0883501,36.8129733 C29.0841472,37.5943365 33.1550209,35.8771359 35.384,32.47 C31.4531974,33.7360736 27.1444375,32.695794 24.2243217,29.7756783 C21.304206,26.8555625 20.2639264,22.5468026 21.53,18.616 Z" id="Shape" fill="#428DFF"/><path d="M35.938,26 C35.681949,25.9998701 35.430108,25.9348456 35.206,25.811 L33.492,24.867 L31.776,25.808 C31.2664459,26.0897019 30.6402848,26.0531207 30.167,25.714 C29.6754535,25.3669212 29.4275337,24.7679438 29.53,24.175 L29.869,22.119 L28.449,20.669 C28.0361557,20.246749 27.8947868,19.6287429 28.083,19.069 C28.2632379,18.5170194 28.7389841,18.1136021 29.313,18.026 L31.242,17.735 L32.115,15.892 C32.3648132,15.3517449 32.9057839,15.0058845 33.501,15.0058845 C34.0962161,15.0058845 34.6371868,15.3517449 34.887,15.892 L35.756,17.737 L37.685,18.037 C38.2579776,18.1254276 38.7324451,18.5287444 38.912,19.08 C39.0994631,19.6401252 38.9573383,20.2580591 38.544,20.68 L37.12,22.123 L37.455,24.18 C37.5562144,24.7726902 37.307571,25.3707574 36.816,25.717 C36.5598669,25.9003084 36.2529691,25.9992287 35.938,26 Z M33.492,22.8 C33.7489092,22.8003595 34.0015015,22.8660886 34.226,22.991 L35.333,23.601 L35.112,22.24 C35.0312212,21.7450724 35.1900356,21.2411706 35.54,20.882 L36.526,19.882 L35.206,19.682 C34.6987013,19.6041304 34.2640273,19.2775619 34.048,18.812 L33.5,17.634 L32.946,18.8 C32.7289306,19.2652048 32.2935474,19.5909916 31.786,19.668 L30.466,19.868 L31.45,20.873 C31.8000647,21.2328429 31.9578828,21.737861 31.875,22.233 L31.652,23.592 L32.762,22.983 C32.9861149,22.8616914 33.2371634,22.7987573 33.492,22.8 Z" id="Shape" fill="#428DFF"/></g></g></svg>
