<svg height="389pt" viewBox="-48 0 389 389.12" width="389pt" xmlns="http://www.w3.org/2000/svg"><path d="m6.886719 6.828125h61.441406v341.332031h-61.441406zm0 0" fill="#94c1ff"/><path d="m68.328125 354.988281h-61.441406c-3.769531 0-6.8281252-3.054687-6.8281252-6.828125v-341.332031c0-3.773437 3.0585942-6.828125 6.8281252-6.828125h61.441406c3.769531 0 6.824219 3.054688 6.824219 6.828125v341.332031c0 3.773438-3.054688 6.828125-6.824219 6.828125zm-54.613281-13.65625h47.785156v-327.679687h-47.785156zm0 0" fill="#0e65e5"/><path d="m286.78125 382.292969h-218.453125v-375.464844h197.136719c11.769531 0 21.316406 9.542969 21.316406 21.316406zm0 0" fill="#2a8ee6"/><g fill="#0e65e5"><path d="m286.78125 389.121094h-218.453125c-3.773437 0-6.828125-3.054688-6.828125-6.828125v-375.464844c0-3.773437 3.054688-6.828125 6.828125-6.828125h197.136719c15.515625 0 28.140625 12.625 28.140625 28.140625v354.152344c0 3.773437-3.054688 6.828125-6.824219 6.828125zm-211.628906-13.65625h204.800781v-347.324219c0-7.988281-6.5-14.488281-14.488281-14.488281h-190.3125zm0 0"/><path d="m37.605469 320.851562h249.175781v61.441407h-249.175781c-16.964844 0-30.71875-13.753907-30.71875-30.71875 0-16.96875 13.753906-30.722657 30.71875-30.722657zm0 0"/><path d="m286.78125 389.121094h-249.175781c-20.703125 0-37.5468752-16.847656-37.5468752-37.546875s16.8437502-37.546875 37.5468752-37.546875h249.175781c3.769531 0 6.824219 3.050781 6.824219 6.824218v61.441407c0 3.773437-3.054688 6.828125-6.824219 6.828125zm-249.175781-61.441406c-13.171875 0-23.890625 10.71875-23.890625 23.894531 0 13.171875 10.71875 23.890625 23.890625 23.890625h242.347656v-47.785156zm0 0"/></g><path d="m150.613281 170.667969c0-33.019531 21.339844-60.996094 50.953125-71.058594-7.582031-2.574219-15.679687-4.035156-24.132812-4.035156-41.476563 0-75.09375 33.621093-75.09375 75.09375 0 41.46875 33.617187 75.09375 75.09375 75.09375 8.453125 0 16.550781-1.460938 24.136718-4.039063-29.617187-10.0625-50.957031-38.039062-50.957031-71.054687zm0 0" fill="#d7e9ff"/><path d="m177.429688 252.585938c-45.167969 0-81.917969-36.746094-81.917969-81.917969 0-45.175781 36.75-81.921875 81.917969-81.921875 8.882812 0 17.746093 1.480468 26.339843 4.40625 2.769531.941406 4.628907 3.539062 4.628907 6.460937 0 2.925781-1.863282 5.527344-4.628907 6.464844-27.710937 9.410156-46.328125 35.367187-46.328125 64.589844 0 29.21875 18.613282 55.179687 46.328125 64.585937 2.765625.941406 4.628907 3.539063 4.628907 6.464844 0 2.921875-1.859376 5.519531-4.628907 6.460938-8.59375 2.925781-17.457031 4.40625-26.339843 4.40625zm0-150.1875c-37.644532 0-68.265626 30.628906-68.265626 68.269531s30.621094 68.265625 68.265626 68.265625c.988281 0 1.976562-.019532 2.964843-.066406-22.492187-14.921876-36.609375-40.320313-36.609375-68.199219 0-27.882813 14.117188-53.28125 36.609375-68.203125-.988281-.042969-1.976562-.066406-2.964843-.066406zm0 0" fill="#0e65e5"/><path d="m218.652344 145.046875 3.050781 9.386719c.5 1.539062 1.933594 2.578125 3.550781 2.578125h9.867188c3.617187 0 5.121094 4.632812 2.195312 6.757812l-7.984375 5.800781c-1.308593.953126-1.855469 2.636719-1.355469 4.175782l3.046876 9.386718c1.121093 3.441407-2.816407 6.300782-5.746094 4.175782l-7.984375-5.800782c-1.308594-.949218-3.082031-.949218-4.386719 0l-7.984375 5.800782c-2.925781 2.125-6.863281-.734375-5.746094-4.175782l3.050781-9.386718c.5-1.539063-.050781-3.222656-1.359374-4.175782l-7.984376-5.800781c-2.925781-2.125-1.421874-6.757812 2.195313-6.757812h9.867187c1.621094 0 3.054688-1.039063 3.554688-2.578125l3.046875-9.386719c1.121094-3.441406 5.988281-3.441406 7.105469 0zm0 0" fill="#d7e9ff"/><path d="m202.722656 194.855469c-2.171875 0-4.347656-.675781-6.203125-2.023438-3.714843-2.699219-5.257812-7.4375-3.839843-11.804687l2.355468-7.261719-6.164062-4.480469c-3.714844-2.691406-5.253906-7.4375-3.835938-11.804687 1.417969-4.363281 5.453125-7.292969 10.046875-7.292969h7.617188l2.355469-7.246094c1.421874-4.367187 5.460937-7.300781 10.046874-7.300781 4.585938 0 8.625 2.933594 10.042969 7.292969.003907 0 .003907.007812.003907.007812l2.355468 7.246094h7.617188c4.589844 0 8.628906 2.933594 10.046875 7.292969 1.417969 4.367187-.121094 9.113281-3.835938 11.804687l-6.164062 4.480469 2.355469 7.261719c1.417968 4.367187-.125 9.105468-3.839844 11.804687-3.710938 2.699219-8.703125 2.695313-12.414063-.007812l-6.167969-4.476563-6.167968 4.476563c-1.855469 1.355469-4.035156 2.03125-6.210938 2.03125zm12.378906-20.894531c2.175782 0 4.351563.671874 6.210938 2.027343l.28125.199219-.109375-.332031c-1.417969-4.359375.125-9.105469 3.832031-11.808594l.285156-.207031h-.347656c-4.589844 0-8.628906-2.933594-10.046875-7.296875l-.105469-.328125-.105468.324218c-1.417969 4.367188-5.457032 7.300782-10.050782 7.300782h-.34375l.277344.203125c3.714844 2.703125 5.253906 7.449219 3.839844 11.808593l-.109375.332032.28125-.199219c1.855469-1.351563 4.035156-2.023437 6.210937-2.023437zm13.09375-21.632813h.066407zm0 0" fill="#0e65e5"/><path d="m225.339844 334.507812c-3.769532 0-6.828125-3.054687-6.828125-6.828124v-27.304688c0-3.773438 3.058593-6.828125 6.828125-6.828125 3.769531 0 6.828125 3.054687 6.828125 6.828125v27.304688c0 3.773437-3.058594 6.828124-6.828125 6.828124zm0 0" fill="#fff"/><path d="m238.992188 320.851562h-27.304688c-3.769531 0-6.828125-3.050781-6.828125-6.824218 0-3.773438 3.058594-6.828125 6.828125-6.828125h27.304688c3.769531 0 6.828124 3.054687 6.828124 6.828125 0 3.773437-3.058593 6.824218-6.828124 6.824218zm0 0" fill="#fff"/><path d="m27.367188 95.574219c-3.769532 0-6.828126-3.054688-6.828126-6.828125v-61.4375c0-3.773438 3.058594-6.828125 6.828126-6.828125 3.769531 0 6.824218 3.054687 6.824218 6.828125v61.4375c0 3.773437-3.054687 6.828125-6.824218 6.828125zm0 0" fill="#fff"/></svg>